<?xml version="1.0" standalone="no"?>
<!DOCTYPE svg PUBLIC "-//W3C//DTD SVG 20010904//EN"
 "http://www.w3.org/TR/2001/REC-SVG-20010904/DTD/svg10.dtd">
<svg version="1.0" xmlns="http://www.w3.org/2000/svg"
 width="1024.000000pt" height="1024.000000pt" viewBox="0 0 1024.000000 1024.000000"
 preserveAspectRatio="xMidYMid meet">
<metadata>
Created by potrace 1.13, written by Peter Selinger 2001-2015
</metadata>
<g transform="translate(0.000000,1024.000000) scale(0.100000,-0.100000)"
fill="#000000" stroke="none">
<path d="M220 8775 l0 -145 30 0 c27 0 30 -3 30 -30 0 -27 3 -30 30 -30 25 0
30 -4 30 -24 0 -19 6 -25 28 -28 21 -2 28 -9 30 -30 3 -21 9 -27 30 -30 l27
-3 3 -1082 2 -1083 -30 0 c-27 0 -30 -3 -30 -30 0 -27 -3 -30 -30 -30 -27 0
-30 -3 -30 -30 0 -27 -3 -30 -30 -30 -27 0 -30 -3 -30 -30 0 -27 -3 -30 -30
-30 l-30 0 0 -145 0 -145 585 0 585 0 0 145 0 145 -30 0 c-27 0 -30 3 -30 30
0 27 -3 30 -30 30 -27 0 -30 3 -30 30 0 27 -3 30 -30 30 -27 0 -30 3 -30 30 0
27 -3 30 -30 30 l-30 0 2 908 3 907 30 0 c30 0 30 -1 33 -57 3 -54 5 -58 27
-58 26 0 28 -5 27 -82 -1 -36 1 -38 28 -38 30 0 30 -1 30 -55 0 -54 0 -55 30
-55 l30 0 0 -60 0 -60 30 0 30 0 0 -60 0 -60 30 0 30 0 0 -60 0 -60 30 0 c30
0 30 -1 30 -54 0 -52 1 -55 28 -58 26 -3 27 -6 30 -60 3 -54 5 -58 27 -58 24
0 25 -3 25 -60 l0 -60 30 0 c30 0 30 -1 30 -55 0 -54 0 -55 30 -55 l30 0 0
-60 0 -60 30 0 30 0 0 -60 0 -60 30 0 c30 0 30 0 30 -59 0 -57 0 -58 28 -57
22 1 28 -4 30 -26 3 -21 9 -27 30 -30 25 -3 27 -6 30 -60 3 -54 5 -58 27 -58
24 0 25 -3 25 -60 l0 -60 30 0 c30 0 30 -1 30 -55 0 -54 0 -55 30 -55 l30 0 0
-60 0 -60 30 0 30 0 0 -60 0 -60 30 0 30 0 0 -60 0 -60 465 0 465 0 0 120 0
120 585 0 585 0 0 145 0 145 -29 0 c-25 0 -30 4 -33 28 -2 21 -8 27 -28 27
-20 0 -26 6 -28 27 -3 21 -9 27 -30 30 -21 2 -28 9 -30 31 -3 21 -9 27 -28 27
l-24 0 0 415 0 415 435 0 435 0 0 25 c0 21 5 25 30 25 27 0 30 3 30 30 0 27 3
30 30 30 27 0 30 3 30 30 0 27 3 30 30 30 l30 0 0 60 c0 57 1 60 25 60 14 0
25 -6 26 -12 0 -7 0 -118 -1 -247 -1 -128 2 -294 6 -367 7 -132 7 -134 30
-134 23 0 24 -2 24 -90 l0 -90 30 0 30 0 0 -85 0 -85 30 0 30 0 0 -60 0 -60
30 0 c27 0 30 -3 30 -30 0 -27 3 -30 30 -30 27 0 30 -3 30 -30 0 -27 3 -30 30
-30 27 0 30 -3 30 -30 0 -25 4 -30 25 -30 20 0 25 -5 25 -25 0 -24 3 -25 60
-25 l60 0 0 -30 0 -30 60 0 60 0 0 -30 0 -30 320 0 320 0 0 30 c0 28 1 29 58
32 53 3 57 5 57 28 0 23 4 25 58 28 53 3 57 5 57 27 0 21 5 25 30 25 27 0 30
3 30 30 0 27 3 30 30 30 27 0 30 3 30 30 0 27 3 30 30 30 27 0 30 3 30 30 0
27 3 30 30 30 l30 0 0 91 0 91 25 -6 c24 -6 24 -6 27 81 3 88 3 88 31 91 l27
3 0 145 0 144 -30 0 c-27 0 -30 3 -30 30 0 25 -4 30 -24 30 -19 0 -25 6 -28
28 -2 21 -9 28 -30 30 -22 3 -28 9 -28 28 0 20 -5 24 -30 24 -27 0 -30 3 -30
30 0 27 -3 30 -30 30 -27 0 -30 3 -30 30 l0 30 -145 0 -145 0 0 -30 c0 -27 -3
-30 -30 -30 l-30 0 0 -84 c0 -85 0 -85 -27 -88 -26 -3 -27 -6 -28 -58 0 -52
-1 -55 -27 -58 -25 -3 -27 -7 -30 -60 -3 -54 -5 -57 -30 -60 -27 -3 -28 -6
-28 -58 0 -53 0 -54 -30 -54 -27 0 -30 -3 -30 -30 l0 -30 -60 0 -60 0 0 30 c0
27 -3 30 -30 30 -25 0 -30 4 -30 24 0 19 -6 25 -27 28 -22 2 -29 9 -31 30 -3
21 -9 27 -30 30 -27 3 -27 4 -30 91 l-3 87 -30 0 -29 0 2 323 3 322 28 3 27 3
0 85 0 84 30 0 c27 0 30 3 30 30 0 27 3 30 30 30 27 0 30 3 30 30 0 27 3 30
30 30 27 0 30 3 30 30 l0 30 60 0 60 0 0 -30 c0 -27 3 -30 30 -30 l30 0 0 -60
0 -60 30 0 c30 0 30 -1 30 -55 0 -42 4 -55 15 -56 8 -1 21 -2 28 -3 8 -1 12
-20 13 -56 1 -52 2 -55 27 -58 27 -3 27 -3 27 -93 l0 -89 30 0 c27 0 30 -3 30
-30 l0 -30 145 0 145 0 0 30 c0 27 3 30 30 30 27 0 30 3 30 30 0 27 3 30 30
30 27 0 30 3 30 30 0 27 3 30 30 30 27 0 30 3 30 30 0 25 4 30 24 30 19 0 25
6 28 28 2 21 9 28 31 30 l28 3 -3 142 -3 142 -27 3 -28 3 0 85 c0 83 0 84 -25
84 -24 0 -24 2 -27 88 -3 87 -3 87 -30 90 -22 3 -28 9 -28 27 0 18 -6 24 -27
27 -22 2 -29 9 -31 31 -3 23 -8 27 -33 27 -26 0 -29 3 -29 30 0 27 -3 30 -30
30 -27 0 -30 3 -30 30 0 30 -1 30 -55 30 -37 0 -55 4 -56 13 -1 6 -2 19 -3 27
-1 11 -16 16 -58 18 -57 3 -58 4 -58 32 l0 30 -320 0 -320 0 0 -30 0 -30 -60
0 -60 0 0 -30 0 -30 -60 0 -60 0 0 -30 c0 -25 -4 -30 -24 -30 -19 0 -25 -6
-28 -27 -2 -22 -9 -29 -30 -31 -21 -3 -27 -9 -30 -30 -2 -22 -8 -27 -30 -27
-24 1 -28 -3 -28 -27 0 -24 -4 -28 -30 -28 l-30 0 0 -60 0 -60 -30 0 -30 0 0
-90 c0 -89 0 -90 -25 -90 l-25 0 0 120 0 120 -30 0 c-30 0 -30 0 -30 58 0 56
-1 58 -27 57 -27 0 -28 2 -31 58 -3 56 -4 57 -32 57 -27 0 -30 3 -30 30 0 27
-3 30 -30 30 -27 0 -30 3 -30 30 0 27 -3 30 -30 30 -27 0 -30 3 -30 30 l0 30
-905 0 -905 0 0 115 0 115 -585 0 -585 0 0 -145 0 -145 29 0 c25 0 30 -4 33
-27 2 -22 9 -29 31 -31 21 -3 27 -9 27 -27 0 -18 6 -24 28 -27 21 -2 28 -9 30
-30 3 -24 8 -28 33 -28 l29 0 0 -735 0 -735 -30 0 c-28 0 -29 1 -32 58 -3 54
-4 57 -30 60 -27 3 -28 6 -28 58 0 53 0 54 -30 54 l-30 0 0 60 0 60 -30 0 -30
0 0 60 0 60 -30 0 -30 0 0 60 0 60 -30 0 c-25 0 -30 4 -30 24 0 19 -6 25 -27
28 -27 3 -28 6 -31 61 -3 53 -5 57 -27 57 -24 0 -25 3 -25 60 l0 60 -30 0
c-30 0 -30 1 -30 55 0 30 -4 56 -10 56 -5 1 -14 3 -20 4 -5 1 -14 3 -20 4 -5
0 -10 26 -10 56 0 54 0 55 -30 55 l-30 0 0 60 0 60 -30 0 -30 0 0 60 0 60 -30
0 c-30 0 -30 1 -30 54 0 52 -1 55 -27 58 -27 3 -28 6 -31 61 -3 53 -5 57 -27
57 -24 0 -25 3 -25 60 l0 60 -30 0 c-30 0 -30 1 -30 55 0 54 0 55 -30 55 l-30
0 0 60 0 60 -555 0 -555 0 0 -145z m998 3 c3 -22 9 -28 27 -28 22 0 24 -4 27
-57 3 -55 4 -58 31 -61 26 -3 27 -6 27 -58 0 -53 0 -54 30 -54 l30 0 0 -60 0
-60 30 0 30 0 0 -60 0 -60 30 0 30 0 0 -60 0 -60 30 0 c30 0 30 -1 30 -54 0
-52 1 -55 28 -58 26 -3 27 -6 30 -60 3 -54 5 -58 27 -58 22 0 24 -4 27 -57 3
-55 4 -58 31 -61 26 -3 27 -6 27 -58 0 -53 0 -54 30 -54 l30 0 0 -60 0 -60 30
0 30 0 0 -60 0 -60 30 0 c30 0 30 -1 30 -54 0 -52 1 -55 28 -58 21 -2 28 -9
30 -30 3 -21 9 -27 30 -30 25 -3 27 -6 30 -60 3 -54 5 -58 27 -58 24 0 25 -3
25 -60 l0 -60 30 0 c30 0 30 -1 30 -55 0 -54 0 -55 30 -55 l30 0 0 -60 0 -60
30 0 30 0 0 -60 c0 -60 0 -60 30 -60 28 0 29 -1 32 -57 3 -56 4 -58 32 -61
l29 -4 -7 -84 -6 -84 30 0 30 0 0 1080 0 1080 -30 0 c-27 0 -30 3 -30 30 0 27
-3 30 -30 30 -27 0 -30 3 -30 30 0 26 -4 30 -28 30 -24 0 -28 4 -27 28 0 22
-5 28 -27 30 -24 3 -28 8 -28 33 l0 29 470 0 470 0 0 -30 c0 -27 -3 -30 -30
-30 -27 0 -30 -3 -30 -30 0 -27 -3 -30 -30 -30 -27 0 -30 -3 -30 -30 0 -27 -3
-30 -30 -30 -27 0 -30 -3 -30 -30 0 -27 -3 -30 -30 -30 l-30 0 0 -1195 0
-1195 23 -1 c12 -1 25 -1 30 0 4 0 7 -13 7 -29 0 -27 3 -30 30 -30 27 0 30 -3
30 -30 0 -27 3 -30 30 -30 27 0 30 -3 30 -30 0 -27 3 -30 30 -30 27 0 30 -3
30 -30 l0 -30 -355 0 -355 0 0 30 c0 27 -3 30 -30 30 -30 0 -30 1 -30 54 0 52
-1 55 -27 58 -27 3 -28 6 -31 61 -3 53 -5 57 -27 57 -22 0 -24 4 -27 58 -3 54
-4 57 -30 60 -27 3 -28 6 -28 58 0 53 0 54 -30 54 l-30 0 0 60 0 60 -30 0 -30
0 0 60 0 60 -30 0 c-30 0 -30 1 -30 55 0 37 -4 56 -12 57 -7 0 -20 1 -28 2 -9
1 -16 13 -18 28 -3 21 -9 27 -30 30 -25 3 -27 6 -30 61 -3 53 -5 57 -27 57
-24 0 -25 3 -25 60 l0 60 -30 0 c-30 0 -30 1 -30 55 0 54 0 55 -30 55 l-30 0
0 60 0 60 -30 0 -30 0 0 60 0 60 -30 0 -30 0 0 60 0 60 -30 0 c-30 0 -30 1
-30 54 0 52 -1 55 -27 58 -27 3 -28 6 -31 61 -3 53 -5 57 -27 57 -24 0 -25 3
-25 60 l0 60 -30 0 c-30 0 -30 1 -30 55 0 54 0 55 -30 55 l-30 0 0 60 0 60
-30 0 -30 0 0 60 0 60 -30 0 c-30 0 -30 1 -30 54 0 51 -1 54 -30 60 -29 5 -30
7 -30 61 0 52 -1 55 -25 55 -23 0 -25 4 -26 43 -2 70 -3 72 -31 75 l-28 3 0
-1229 0 -1229 28 1 c22 1 28 -4 30 -26 3 -21 9 -27 30 -30 21 -2 28 -9 30 -30
3 -21 9 -27 30 -30 21 -2 28 -9 30 -30 3 -22 9 -28 28 -28 20 0 24 -5 24 -30
l0 -30 -471 0 -470 0 3 28 c2 21 9 28 30 30 21 3 27 9 30 30 2 21 9 28 31 30
23 3 27 8 27 33 0 25 4 29 29 29 25 0 30 4 33 28 2 21 9 28 31 30 l27 3 0
1195 0 1194 -30 0 c-27 0 -30 3 -30 30 0 27 -3 30 -30 30 -27 0 -30 3 -30 30
0 27 -3 30 -30 30 -27 0 -30 3 -30 30 0 27 -3 30 -30 30 -25 0 -30 4 -30 23 0
13 3 27 7 30 3 4 203 6 442 5 l436 -3 3 -27z m2042 -263 l0 -115 30 0 c27 0
30 -3 30 -30 0 -27 3 -30 30 -30 27 0 30 -3 30 -30 0 -27 3 -30 30 -30 27 0
30 -3 30 -30 0 -27 3 -30 30 -30 l30 0 0 -850 0 -850 -30 0 c-27 0 -30 -3 -30
-30 0 -27 -3 -30 -30 -30 -25 0 -30 -4 -30 -25 0 -14 -6 -26 -12 -26 -7 -1
-20 -2 -28 -3 -8 0 -16 -13 -18 -28 -3 -21 -9 -27 -30 -30 l-27 -3 -3 -117 -3
-118 -29 0 c-27 0 -30 3 -30 30 0 27 -3 30 -30 30 -27 0 -30 3 -30 30 0 27 -3
30 -30 30 -27 0 -30 3 -30 30 0 25 -4 30 -25 30 l-25 0 0 1085 0 1085 24 0
c19 0 25 6 28 28 2 21 9 28 31 30 21 3 27 9 27 28 0 20 5 24 30 24 27 0 30 3
30 30 0 27 3 30 30 30 l30 0 0 -115z m1700 30 c0 -21 5 -25 30 -25 27 0 30 -3
30 -30 0 -27 3 -30 30 -30 27 0 30 -3 30 -29 0 -25 4 -30 28 -33 26 -3 27 -6
30 -60 3 -56 4 -58 31 -58 27 0 28 -2 29 -47 0 -72 0 -73 27 -73 l25 0 0 -145
0 -145 -25 0 c-14 0 -25 -6 -26 -12 0 -7 -1 -33 -2 -58 -2 -41 -4 -45 -29 -48
-25 -3 -27 -7 -30 -60 -3 -54 -5 -57 -30 -60 -22 -3 -28 -9 -28 -28 0 -20 -5
-24 -30 -24 -27 0 -30 -3 -30 -30 0 -27 -3 -30 -30 -30 -27 0 -30 -3 -30 -30
l0 -30 -440 0 -440 0 0 -525 0 -525 30 0 c27 0 30 -3 30 -30 0 -27 3 -30 30
-30 27 0 30 -3 30 -30 0 -27 3 -30 30 -30 27 0 30 -3 30 -30 0 -27 3 -30 30
-30 27 0 30 -3 30 -30 l0 -30 -470 0 -470 0 0 29 c0 25 4 30 28 33 21 2 28 9
30 31 3 21 9 27 28 27 20 0 24 5 24 30 0 27 3 30 30 30 27 0 30 3 30 30 0 27
3 30 30 30 l30 0 0 965 0 965 -30 0 c-25 0 -30 4 -30 25 0 14 -4 26 -10 26 -5
1 -14 3 -20 4 -5 1 -14 3 -20 4 -5 0 -10 12 -10 26 0 20 -5 25 -25 25 -21 0
-25 5 -25 30 0 27 -3 30 -30 30 -27 0 -30 3 -30 30 l0 30 790 0 790 0 0 -25z
m1516 0 c-5 -24 -3 -25 55 -25 59 0 59 0 59 -30 l0 -30 60 0 60 0 0 -30 c0
-27 3 -30 30 -30 27 0 30 -3 30 -30 0 -27 3 -30 30 -30 27 0 30 -3 30 -30 0
-25 4 -30 24 -30 19 0 25 -6 28 -27 2 -22 9 -29 31 -31 l27 -3 0 -85 0 -84 30
0 30 0 0 -90 0 -90 30 0 c27 0 30 -3 30 -30 0 -27 -3 -30 -30 -30 -27 0 -30
-3 -30 -30 0 -27 -3 -30 -30 -30 -27 0 -30 -3 -30 -30 0 -27 -3 -30 -30 -30
-27 0 -30 -3 -30 -30 0 -25 -4 -30 -25 -30 -20 0 -25 -5 -25 -25 0 -21 -5 -25
-30 -25 -27 0 -30 -3 -30 -30 0 -27 -3 -30 -29 -30 -25 0 -30 4 -33 28 -2 21
-9 28 -30 30 l-28 3 0 85 0 84 -30 0 -30 0 0 60 c0 60 0 60 -30 60 -28 0 -29
1 -32 58 -2 42 -7 57 -18 58 -8 1 -21 2 -27 3 -9 1 -13 19 -13 56 0 54 0 55
-30 55 -27 0 -30 3 -30 30 l0 30 -169 0 -170 0 -3 -27 c-2 -22 -9 -29 -30 -31
-21 -3 -27 -9 -30 -30 -2 -21 -9 -28 -30 -30 -22 -3 -28 -9 -28 -28 0 -23 -12
-29 -47 -25 -10 1 -13 -22 -13 -89 l0 -90 -30 0 -30 0 0 -435 0 -435 30 0 30
0 0 -90 0 -90 30 0 c27 0 30 -3 30 -30 0 -27 3 -30 30 -30 27 0 30 -3 30 -30
0 -27 3 -30 30 -30 27 0 30 -3 30 -30 l0 -30 170 0 170 0 0 30 c0 27 3 30 30
30 l30 0 0 60 0 60 30 0 30 0 0 60 0 60 30 0 c30 0 30 1 30 54 0 52 1 55 28
58 27 3 27 3 30 91 l3 87 29 0 c27 0 30 3 30 30 0 27 3 30 30 30 27 0 30 -3
30 -30 0 -27 3 -30 30 -30 27 0 30 -3 30 -30 0 -25 4 -30 24 -30 19 0 25 -6
28 -27 2 -22 9 -29 30 -31 21 -3 27 -9 30 -30 2 -21 9 -28 31 -30 21 -3 27 -9
27 -28 0 -20 5 -24 30 -24 28 0 30 -3 30 -35 0 -32 -2 -35 -30 -35 l-30 0 0
-85 0 -85 -30 0 -30 0 0 -90 0 -90 -30 0 c-27 0 -30 -3 -30 -30 0 -25 -4 -30
-25 -30 -20 0 -25 -5 -25 -24 0 -19 -6 -25 -27 -28 -22 -2 -29 -9 -31 -30 -3
-24 -8 -28 -33 -28 -26 0 -29 -3 -29 -30 l0 -30 -60 0 c-60 0 -60 0 -60 -30 0
-28 -1 -29 -57 -32 -54 -3 -58 -5 -58 -28 l0 -25 -207 -3 -208 -2 0 29 c0 29
-1 30 -57 33 -55 3 -58 4 -61 31 -3 26 -6 27 -58 27 -53 0 -54 0 -54 30 0 27
-3 30 -30 30 -27 0 -30 3 -30 30 0 27 -3 30 -30 30 -25 0 -30 4 -30 24 0 19
-6 25 -27 28 -22 2 -29 9 -31 30 -3 21 -9 27 -30 30 -25 3 -27 6 -30 61 -3 52
-5 57 -26 57 -29 0 -33 14 -32 103 1 56 -2 68 -16 73 -10 3 -22 2 -28 -1 -6
-4 -10 26 -10 84 l0 91 -30 0 -30 0 0 383 0 383 28 0 27 -1 3 87 c3 86 3 87
29 90 27 3 27 3 28 88 l0 85 28 3 c26 3 27 6 27 58 0 53 0 54 30 54 27 0 30 3
30 30 0 27 3 30 30 30 27 0 30 3 30 30 0 27 3 30 30 30 27 0 30 3 30 30 0 27
3 30 30 30 27 0 30 3 30 30 0 30 1 30 54 30 52 0 55 1 58 28 3 26 6 27 61 30
53 3 57 5 57 27 l0 25 210 0 210 0 -4 -25z"/>
<path d="M4080 8020 l0 -320 320 0 320 0 0 24 c0 19 7 26 30 31 23 5 30 12 30
31 0 20 5 24 30 24 l30 0 0 205 0 205 -30 0 c-27 0 -30 3 -30 30 0 27 -3 30
-30 30 -27 0 -30 3 -30 30 l0 30 -320 0 -320 0 0 -320z m530 171 c0 -20 5 -28
18 -28 36 0 42 -4 42 -27 0 -19 6 -25 28 -28 27 -3 27 -3 30 -90 l3 -88 -31 0
c-27 0 -30 -3 -30 -30 0 -27 -3 -30 -30 -30 -27 0 -30 -3 -30 -30 l0 -30 -205
0 -205 0 0 205 0 205 205 0 205 0 0 -29z"/>
<path d="M130 5035 l0 -465 145 0 145 0 0 25 c0 21 5 25 30 25 27 0 30 3 30
30 0 27 3 30 30 30 27 0 30 3 30 30 0 27 3 30 30 30 27 0 30 3 30 30 l0 30
323 -2 322 -3 0 -965 0 -965 -27 2 c-25 2 -28 -1 -28 -27 0 -27 -3 -30 -30
-30 -27 0 -30 -3 -30 -30 0 -27 -3 -30 -30 -30 -27 0 -30 -3 -30 -30 0 -27 -3
-30 -30 -30 l-30 0 0 -145 0 -145 700 0 700 0 0 145 0 145 -30 0 c-27 0 -30 3
-30 30 0 27 -3 30 -30 30 -27 0 -30 3 -30 30 0 25 -4 30 -25 30 -20 0 -25 5
-25 25 0 24 -9 29 -47 28 -10 -1 -13 199 -13 968 l0 969 325 0 325 0 0 -30 c0
-25 4 -30 25 -30 21 0 25 -5 25 -30 0 -27 3 -30 29 -30 25 0 30 -4 33 -27 2
-22 9 -29 31 -31 21 -3 27 -9 27 -28 l0 -24 145 0 145 0 0 205 0 205 30 0 c27
0 30 -3 30 -30 0 -27 3 -30 30 -30 27 0 30 -3 30 -30 0 -27 3 -30 30 -30 l30
0 0 -90 0 -90 -30 0 -30 0 0 -60 0 -60 -30 0 -30 0 0 -60 0 -60 -30 0 c-30 0
-30 -1 -30 -54 0 -52 -1 -55 -27 -58 -27 -3 -28 -6 -31 -60 -3 -54 -5 -58 -27
-58 -22 0 -24 -4 -27 -57 -3 -55 -4 -58 -30 -61 -27 -3 -28 -6 -28 -58 0 -53
0 -54 -30 -54 l-30 0 0 -60 0 -60 -30 0 -30 0 0 -60 0 -60 -30 0 c-30 0 -30
-1 -30 -54 0 -52 -1 -55 -27 -58 -27 -3 -28 -6 -31 -60 -3 -54 -5 -58 -27 -58
-22 0 -24 -4 -27 -57 -3 -55 -5 -58 -30 -61 -25 -3 -27 -7 -30 -60 -3 -54 -5
-57 -30 -60 -27 -3 -28 -6 -28 -58 0 -53 0 -54 -30 -54 l-30 0 0 -60 0 -60
-30 0 -30 0 0 -60 0 -60 -60 0 -60 0 0 -140 0 -140 525 0 525 0 0 139 0 140
-27 3 c-22 2 -29 9 -31 31 -3 21 -9 27 -28 27 -20 0 -24 5 -24 30 0 27 -3 30
-30 30 l-30 0 0 90 0 90 30 0 30 0 0 60 c0 57 1 60 25 60 24 0 25 3 25 55 0
54 0 55 30 55 27 0 30 3 30 30 l0 30 443 -2 442 -3 3 -52 c3 -49 5 -53 28 -53
20 0 24 -5 24 -30 0 -27 3 -30 30 -30 l30 0 0 -60 0 -60 30 0 30 0 0 -60 0
-60 30 0 c27 0 30 -3 30 -30 l0 -30 -60 0 -60 0 0 -30 c0 -27 -3 -30 -30 -30
-27 0 -30 -3 -30 -30 0 -25 -4 -30 -25 -30 l-25 0 0 -140 0 -140 2760 0 c1518
0 2763 -1 2768 -2 4 -2 8 61 10 139 l3 142 -28 3 c-22 2 -29 9 -31 31 -3 21
-9 27 -28 27 -20 0 -24 5 -24 30 0 27 -3 30 -30 30 -27 0 -30 3 -30 30 0 27
-3 30 -30 30 -27 0 -30 3 -30 30 0 27 -3 30 -30 30 -27 0 -30 3 -30 30 0 27
-3 30 -30 30 -25 0 -30 4 -30 24 0 19 -6 25 -27 28 -22 2 -29 9 -31 30 -3 21
-9 27 -30 30 -21 2 -28 9 -30 31 -3 21 -9 27 -28 27 -20 0 -24 5 -24 30 0 27
-3 30 -30 30 -27 0 -30 3 -30 30 0 27 -3 30 -30 30 -27 0 -30 3 -30 30 0 27
-3 30 -30 30 -27 0 -30 3 -30 30 0 27 -3 30 -30 30 -25 0 -30 4 -30 24 0 19
-6 25 -27 28 -22 2 -29 9 -31 30 -3 21 -9 27 -30 30 -23 2 -27 8 -27 33 0 25
4 30 28 33 26 3 27 6 27 58 0 53 0 54 30 54 l30 0 0 60 0 60 30 0 30 0 0 60 0
60 30 0 c30 0 30 1 30 55 0 54 0 55 30 55 l30 0 0 60 0 60 30 0 30 0 0 60 c0
57 1 60 25 60 24 0 25 3 25 54 0 52 1 55 28 58 26 3 27 6 30 61 l3 57 59 0
c60 0 60 0 60 30 0 27 3 30 30 30 27 0 30 3 30 30 0 27 3 30 30 30 27 0 30 3
30 30 0 27 3 30 30 30 27 0 30 3 30 30 0 25 4 30 25 30 l25 0 0 140 0 140
-1080 0 -1080 0 0 -140 0 -140 30 0 c27 0 30 -3 30 -30 0 -27 3 -30 30 -30 27
0 30 -3 30 -30 0 -27 3 -30 30 -30 27 0 30 -3 30 -30 0 -27 3 -30 30 -30 l30
0 0 -850 0 -850 -30 0 c-27 0 -30 -3 -30 -30 0 -27 -3 -30 -30 -30 -27 0 -30
-3 -30 -30 0 -27 -3 -30 -30 -30 -27 0 -30 -3 -30 -30 0 -25 -4 -30 -25 -30
l-25 0 0 235 0 235 -145 0 -145 0 0 -30 c0 -27 -3 -30 -29 -30 -25 0 -30 -4
-33 -27 -2 -22 -9 -29 -30 -31 -22 -3 -28 -9 -28 -28 0 -20 -5 -24 -30 -24
-27 0 -30 -3 -30 -30 l0 -30 -470 0 -470 0 0 820 0 820 30 0 c27 0 30 3 30 30
0 27 3 30 30 30 27 0 30 3 30 30 0 27 3 30 30 30 27 0 30 3 30 30 0 27 3 30
30 30 l30 0 0 140 0 140 -585 0 -585 0 0 -139 0 -140 28 -3 c21 -2 28 -9 30
-30 3 -21 9 -27 30 -30 21 -2 28 -9 30 -30 3 -21 9 -27 30 -30 21 -2 28 -9 30
-30 3 -22 9 -28 28 -28 l24 0 0 -850 0 -850 -24 0 c-19 0 -25 -6 -28 -27 -2
-22 -9 -29 -30 -31 -24 -3 -28 -8 -28 -33 0 -26 -3 -29 -30 -29 -27 0 -30 -3
-30 -30 l0 -30 -60 0 -60 0 0 30 c0 27 -3 30 -30 30 -27 0 -30 3 -30 30 0 27
-3 30 -30 30 -27 0 -30 3 -30 30 0 27 -3 30 -30 30 -27 0 -30 3 -30 30 l0 30
-60 0 -60 0 0 54 c0 49 -2 55 -22 58 -20 3 -23 10 -26 61 -3 56 -4 57 -32 57
-30 0 -30 0 -30 60 l0 60 -30 0 -30 0 0 60 0 60 -30 0 c-30 0 -30 1 -30 55 0
54 0 55 -30 55 l-30 0 0 60 0 60 -30 0 -30 0 0 60 c0 57 -1 60 -24 60 -20 0
-25 6 -30 45 -4 25 -4 49 -1 55 4 6 -7 10 -24 10 l-31 0 0 60 0 60 -30 0 -30
0 0 60 0 60 -30 0 c-30 0 -30 1 -30 55 0 37 -4 56 -12 57 -7 0 -20 1 -28 2
-11 1 -16 16 -18 59 -3 56 -4 57 -32 57 -30 0 -30 0 -30 60 l0 60 -30 0 -31 0
3 88 c3 87 3 87 30 90 24 3 28 8 28 33 0 25 4 29 29 29 25 0 30 4 33 28 2 21
9 28 31 30 l27 3 0 140 0 139 -585 0 -585 0 0 120 0 120 -1580 0 -1580 0 0
-465z m3048 -2 l2 -353 -35 0 c-32 0 -35 2 -35 30 0 25 -4 30 -24 30 -18 0
-25 7 -29 30 -5 24 -12 30 -32 30 -20 0 -25 5 -25 25 0 21 -5 25 -30 25 -28 0
-30 3 -30 36 l0 37 -46 -7 c-26 -3 -224 -6 -440 -6 l-394 0 0 -1080 0 -1080
30 0 c27 0 30 -3 30 -30 0 -27 3 -30 29 -30 25 0 30 -4 33 -27 2 -22 8 -28 28
-28 20 0 26 -6 28 -27 3 -24 8 -28 33 -28 28 0 30 -2 27 -32 l-3 -33 -585 0
-585 0 0 30 c0 25 4 30 28 33 21 3 27 9 27 28 0 23 4 26 40 28 9 1 16 13 18
29 3 23 8 27 33 27 26 0 29 3 29 30 0 27 3 30 30 30 l30 0 0 1080 0 1080 -439
0 -440 0 -3 -27 c-2 -20 -9 -29 -25 -31 -17 -3 -23 -10 -23 -28 0 -20 -5 -24
-30 -24 -27 0 -30 -3 -30 -30 0 -27 -3 -30 -30 -30 -27 0 -30 -3 -30 -30 0
-27 -3 -30 -30 -30 l-30 0 0 355 0 355 1463 -2 1462 -3 3 -352z m1172 87 c0
-27 -3 -30 -30 -30 -27 0 -30 -3 -30 -30 0 -27 -3 -30 -30 -30 -27 0 -30 -3
-30 -30 0 -27 -3 -30 -30 -30 -27 0 -30 -3 -30 -30 0 -27 -3 -30 -30 -30 l-30
0 0 -85 0 -85 30 0 30 0 0 -60 0 -60 30 0 c30 0 30 -1 30 -55 0 -54 0 -55 30
-55 l30 0 0 -60 0 -60 30 0 c30 0 30 0 30 -59 0 -58 1 -60 28 -63 25 -3 27 -7
30 -55 3 -49 5 -53 28 -53 23 0 24 -3 24 -60 l0 -60 30 0 30 0 0 -60 0 -60 30
0 c30 0 30 -1 30 -54 0 -52 1 -55 28 -58 26 -3 27 -6 30 -60 3 -57 4 -58 32
-58 30 0 30 0 30 -60 l0 -60 30 0 30 0 0 -60 c0 -57 1 -60 25 -60 24 0 25 -3
25 -55 0 -54 0 -55 30 -55 l30 0 0 -60 0 -60 30 0 30 0 0 -60 0 -60 30 0 c27
0 30 -3 30 -30 0 -27 3 -30 30 -30 25 0 30 -4 30 -24 0 -19 6 -25 28 -28 21
-2 28 -9 30 -30 3 -21 9 -27 30 -30 21 -2 28 -9 30 -30 3 -22 9 -28 28 -28 20
0 24 -5 24 -30 0 -27 3 -30 30 -30 27 0 30 -3 30 -30 l0 -30 -380 0 -380 0 0
30 c0 27 3 30 30 30 27 0 30 3 30 30 0 27 3 30 30 30 27 0 30 3 30 30 0 25 4
30 24 30 19 0 25 6 28 28 2 21 9 28 31 30 21 3 27 9 27 28 0 20 5 24 30 24 27
0 30 3 30 30 0 27 -3 30 -30 30 -27 0 -30 3 -30 30 0 27 -3 30 -30 30 -30 0
-30 1 -30 55 0 52 -1 55 -25 55 -24 0 -25 3 -25 60 l0 60 -30 0 -30 0 0 60 0
60 -30 0 -30 0 0 60 0 60 -555 0 -555 0 0 -60 0 -60 -30 0 -30 0 0 -60 0 -60
-30 0 c-30 0 -30 0 -30 -59 0 -58 -1 -60 -27 -63 -16 -2 -29 -9 -29 -15 -1 -7
-2 -31 -3 -53 -1 -36 -4 -40 -26 -40 -25 0 -25 -1 -25 -84 l0 -85 28 -3 c23
-3 27 -7 24 -30 -3 -25 0 -28 27 -28 28 0 31 -3 31 -30 0 -27 3 -30 30 -30 27
0 30 -3 30 -30 0 -27 3 -30 30 -30 27 0 30 -3 30 -30 l0 -30 -410 0 -410 0 0
30 c0 27 3 30 30 30 27 0 30 3 30 30 0 25 4 30 25 30 22 0 24 4 27 58 3 54 4
57 31 60 26 3 27 6 27 58 0 53 0 54 30 54 l30 0 0 60 0 60 30 0 30 0 0 60 0
60 30 0 c30 0 30 1 30 55 0 54 0 55 30 55 l30 0 0 60 0 60 30 0 30 0 0 60 c0
57 1 60 25 60 22 0 24 4 27 58 3 54 4 57 31 60 26 3 27 6 27 58 0 53 0 54 30
54 l30 0 0 60 0 60 30 0 30 0 0 60 0 60 30 0 c30 0 30 1 30 55 0 54 0 55 30
55 30 0 30 0 30 59 0 58 1 60 28 63 26 3 27 6 28 58 1 52 2 55 27 58 26 3 27
6 27 58 0 53 0 54 30 54 l30 0 0 60 0 60 30 0 30 0 0 84 0 85 -27 3 c-22 2
-29 9 -31 30 -3 21 -9 27 -30 30 -21 2 -28 9 -30 30 -3 21 -9 27 -30 30 -21 2
-27 8 -27 28 0 20 -6 26 -27 28 -24 3 -28 8 -28 33 l0 29 470 0 470 0 0 -30z
m2100 0 c0 -27 -3 -30 -30 -30 -27 0 -30 -3 -30 -30 0 -25 -4 -30 -24 -30 -19
0 -25 -6 -28 -27 -2 -22 -9 -29 -30 -31 -21 -3 -27 -9 -30 -30 -2 -21 -9 -28
-30 -30 l-28 -3 0 -935 0 -934 583 2 582 3 3 28 c3 21 9 27 28 27 20 0 24 5
24 30 0 27 3 30 30 30 27 0 30 3 30 30 0 27 3 30 30 30 27 0 30 3 30 30 0 27
3 30 30 30 l30 0 0 -265 0 -265 -1055 0 -1055 0 0 30 c0 27 3 30 30 30 27 0
30 3 30 30 0 27 3 30 30 30 27 0 30 3 30 30 0 27 3 30 30 30 27 0 30 3 30 30
0 27 3 30 30 30 l30 0 0 960 0 960 -30 0 c-27 0 -30 3 -30 30 0 27 -3 30 -30
30 -27 0 -30 3 -30 30 0 27 -3 30 -30 30 -27 0 -30 3 -30 30 0 27 -3 30 -30
30 -27 0 -30 3 -30 30 l0 30 470 0 470 0 0 -30z m2340 0 c0 -27 -3 -30 -30
-30 -27 0 -30 -3 -30 -30 0 -27 -3 -30 -30 -30 -27 0 -30 -3 -30 -30 0 -27 -3
-30 -30 -30 -27 0 -30 -3 -30 -30 0 -27 -3 -30 -30 -30 l-30 0 0 -435 0 -435
30 0 c27 0 30 -3 30 -30 0 -27 3 -30 30 -30 27 0 30 -3 30 -30 0 -27 3 -30 30
-30 27 0 30 -3 30 -30 0 -25 4 -30 25 -30 21 0 25 5 25 30 0 27 3 30 30 30
l30 0 0 60 0 60 30 0 30 0 0 60 0 60 30 0 c30 0 30 1 30 55 0 54 0 55 30 55
30 0 30 0 30 59 0 58 1 60 28 63 26 3 27 6 30 61 3 53 5 57 27 57 24 0 25 3
25 55 0 54 0 55 30 55 l30 0 0 60 0 60 30 0 c27 0 30 3 30 30 0 27 3 30 30 30
25 0 30 4 30 24 0 19 -6 25 -27 28 -22 2 -29 9 -31 30 -3 21 -9 27 -30 30 -21
2 -28 9 -30 31 -3 23 -8 27 -33 27 -25 0 -29 4 -29 29 0 25 -4 30 -27 33 -23
2 -28 8 -27 31 1 23 -3 27 -27 27 -26 0 -29 4 -29 30 l0 30 380 0 380 0 0 -30
c0 -27 -3 -30 -30 -30 -27 0 -30 -3 -30 -30 0 -27 -3 -30 -30 -30 -27 0 -30
-3 -30 -30 0 -25 -4 -30 -24 -30 -19 0 -25 -6 -28 -27 -2 -22 -9 -29 -30 -31
-21 -3 -27 -9 -30 -30 -2 -21 -9 -28 -30 -30 -22 -3 -28 -9 -28 -28 0 -20 -5
-24 -30 -24 l-30 0 0 -60 0 -60 -30 0 -30 0 0 -60 0 -60 -30 0 c-30 0 -30 0
-30 -59 0 -59 0 -60 -27 -58 -27 2 -28 0 -31 -55 -3 -54 -5 -58 -27 -58 -24 0
-25 -3 -25 -60 0 -60 0 -60 -30 -60 -28 0 -29 -1 -32 -57 -3 -55 -4 -58 -30
-61 -27 -3 -28 -6 -28 -58 0 -53 0 -54 -30 -54 l-30 0 0 -60 0 -60 -30 0 c-27
0 -30 -3 -30 -30 0 -27 -3 -30 -30 -30 -30 0 -30 -1 -30 -55 0 -54 0 -55 30
-55 27 0 30 -3 30 -30 0 -27 3 -30 30 -30 27 0 30 -3 30 -30 0 -27 3 -30 30
-30 27 0 30 -3 30 -30 0 -27 3 -30 30 -30 27 0 30 -3 30 -30 0 -27 3 -30 30
-30 25 0 30 -4 30 -25 0 -20 5 -25 25 -25 21 0 25 -5 25 -30 0 -27 3 -30 30
-30 27 0 30 -3 30 -30 0 -27 3 -30 30 -30 27 0 30 -3 30 -30 0 -27 3 -30 30
-30 27 0 30 -3 30 -30 0 -27 3 -30 30 -30 27 0 30 -3 30 -30 0 -27 3 -30 30
-30 27 0 30 -3 30 -30 0 -27 3 -30 30 -30 25 0 30 -4 30 -25 0 -20 5 -25 25
-25 21 0 25 -5 25 -30 0 -27 3 -30 30 -30 27 0 30 -3 30 -30 0 -27 3 -30 30
-30 27 0 30 -3 30 -30 0 -27 3 -30 30 -30 27 0 30 -3 30 -30 l0 -30 -410 0
-410 0 0 30 c0 27 3 30 30 30 27 0 30 3 30 30 0 25 4 30 25 30 25 0 25 1 25
84 l0 85 -27 3 c-24 3 -28 7 -25 31 2 24 0 27 -28 27 -27 0 -30 3 -30 30 0 27
-3 30 -30 30 -27 0 -30 3 -30 30 0 27 -3 30 -30 30 -26 0 -30 4 -30 28 0 24
-4 28 -27 27 -23 0 -29 5 -31 27 -3 21 -9 27 -30 30 -21 2 -28 9 -30 30 -3 21
-9 27 -30 30 -21 2 -28 9 -30 31 -3 21 -9 27 -28 27 -20 0 -24 5 -24 30 0 27
-3 30 -30 30 -27 0 -30 3 -30 30 0 27 -3 30 -30 30 l-30 0 0 -290 0 -290 30 0
c27 0 30 -3 30 -30 0 -27 3 -30 30 -30 27 0 30 -3 30 -30 0 -27 3 -30 30 -30
27 0 30 -3 30 -30 0 -27 3 -30 30 -30 27 0 30 -3 30 -30 l0 -30 -470 0 -470 0
0 30 c0 27 3 30 29 30 26 0 30 3 28 28 -2 22 2 28 25 30 21 3 27 9 30 30 2 21
9 28 30 30 21 3 27 9 30 30 2 21 9 28 31 30 l27 3 0 959 0 959 -27 3 c-22 2
-29 9 -31 30 -3 21 -9 27 -30 30 -21 2 -28 9 -30 31 -3 21 -9 27 -28 27 -19 0
-26 6 -30 30 -5 23 -12 30 -30 30 -20 0 -24 5 -24 30 l0 30 470 0 470 0 0 -30z
m170 -170 c0 -27 3 -30 30 -30 27 0 30 -3 30 -30 l0 -30 60 0 60 0 0 -30 c0
-27 -3 -30 -30 -30 l-30 0 0 -60 0 -60 -30 0 -30 0 0 -60 0 -60 -30 0 -30 0 0
-61 c0 -51 -3 -60 -17 -58 -40 4 -43 0 -43 -56 0 -52 -1 -55 -25 -55 -22 0
-24 -4 -27 -57 -3 -55 -5 -58 -30 -61 -25 -3 -27 -7 -30 -60 -3 -56 -4 -57
-33 -57 -25 0 -30 4 -33 28 -3 21 -9 27 -28 27 l-24 0 0 325 0 325 25 0 c21 0
25 5 25 30 0 27 3 30 30 30 27 0 30 3 30 30 0 27 3 30 30 30 27 0 30 3 30 30
l0 30 60 0 60 0 0 -30z m-230 -1760 c0 -27 3 -30 30 -30 27 0 30 -3 30 -30 0
-27 3 -30 30 -30 19 0 30 -5 29 -12 -4 -34 2 -45 24 -44 17 1 23 -5 25 -26 3
-24 8 -28 33 -28 27 0 29 -3 29 -35 l0 -35 -60 0 -60 0 0 30 c0 27 -3 30 -30
30 -27 0 -30 3 -30 29 0 25 -4 30 -27 33 -22 2 -29 9 -31 31 -3 21 -9 27 -28
27 -23 0 -24 3 -24 60 l0 60 30 0 c27 0 30 -3 30 -30z"/>
<path d="M3940 4590 c0 -27 -3 -30 -30 -30 -30 0 -30 -1 -30 -55 0 -54 0 -55
-30 -55 l-30 0 0 -60 0 -60 -30 0 -30 0 0 -60 0 -60 -30 0 -30 0 0 -60 0 -60
-30 0 c-30 0 -30 -1 -30 -55 0 -52 -1 -55 -25 -55 -24 0 -25 -3 -25 -60 l0
-60 -30 0 c-25 0 -30 -4 -30 -25 l0 -25 405 0 405 0 0 55 c0 54 0 55 -30 55
l-30 0 0 60 c0 57 -1 60 -25 60 -24 0 -25 3 -25 55 0 54 0 55 -30 55 l-30 0 0
60 0 60 -30 0 -30 0 0 60 0 60 -30 0 c-30 0 -30 1 -30 54 0 52 -1 55 -27 58
-27 3 -28 6 -31 61 -3 53 -5 57 -27 57 -21 0 -25 -5 -25 -30z m60 -315 c0 -52
1 -55 25 -55 24 0 25 -3 25 -60 l0 -60 30 0 30 0 0 -60 0 -60 30 0 c27 0 30
-3 30 -30 l0 -30 -205 0 -205 0 0 60 0 60 30 0 30 0 0 60 c0 57 1 60 25 60 24
0 25 3 25 55 0 54 0 55 30 55 27 0 30 3 30 30 0 28 3 30 35 30 l35 0 0 -55z"/>
</g>
</svg>
